<svg xmlns="http://www.w3.org/2000/svg" viewBox="0 0 400 400"><g><g><path d="M141.1 221.48c3.18 1.84 7.06 4.14 11.14 6.56-11.72 4-20.48 20.56-20.32 32.42-4.94-3.6-8.46-6.2-9.56-7.06a35.44 35.44 0 0 1 18.74-31.92Z" fill="#94bfec"></path><path d="M293.6 298.24c-.72 5.66-1.36 10.28-1.82 12.98-8.46 4-27.3 1.74-37.68-6.88.34-2.86.88-7.58 1.52-13.14 6.82 7.54 26.8 11.5 37.98 7.04Z" fill="#94bfec"></path><path d="M184.46 255.48a137.34 137.34 0 0 1-6.8-24.5c.74-6.48 2-19.28 2.3-22a11.88 11.88 0 0 0-1.16-6.32 38 38 0 0 1 12.9-18 38 38 0 0 0 5.38 1.22c-14.16 21.18-9.66 54.26-2.54 89.4-22-14-50.34-31.08-56.14-35.16a28.66 28.66 0 0 1 13.84-12l14.26 8.46c5.26 5.18 11.76 12 17.96 18.9Z" fill="#94bfec"></path><path d="M229.22 225.62c-.32 4.12-4 52.16-4.96 59.84-2.14 19.34-16.98 26.74-38.14 13.08C172.84 290 146.36 271 132 260.48a39.28 39.28 0 0 1 6.48-20.36c5.82 4 34 21.08 56.14 35.18-7.14-35.12-11.62-68.2 2.54-89.38 12 1.88 27.46-.9 32-8.42 10.9 6 24.16 13.22 35.6 20.24 34.64 21.26 35.5 29.06 34.92 41.54-.54 11.5-3.62 40.74-6 58.96-11.18 4.46-31.16.48-38-7.08 2-16.58 4.66-40.46 4.94-43.64l-3.1-.76a137.26 137.26 0 0 1-28.3-21.14Z" fill="#94bfec"></path><path d="M269.02 111.84a2.7 2.7 0 0 1 .12 4.8 12.96 12.96 0 0 1-4.86 1.84c-2.88.44-4.86-2-.64-4.46a14.68 14.68 0 0 0 5.38-2.18Z" fill="#94bfec"></path><path d="M269.1 106.94c2 .72 2 3.48 0 4.9a14.54 14.54 0 0 1-5.46 2.16c-3.1.6-5.54-2-1.08-4.78a11.18 11.18 0 0 0 6.54-2.28Z" fill="#94bfec"></path><path d="M269.1 106.94a10 10 0 0 1-7.6 2.1 2.98 2.98 0 0 0 .72-1.88l0-3a16.66 16.66 0 0 0 6.54-2 2.84 2.84 0 0 1 .34 4.78Z" fill="#94bfec"></path><path d="M268.56 98.16c1.74.66 1.72 3.5-.72 4.52a19.08 19.08 0 0 1-5.64 1.46 31.66 31.66 0 0 0-.48-4.34c1.78-1.06 5.28-2.26 6.84-1.64Z" fill="#94bfec"></path><path d="M262.56 136.4a73 73 0 0 1-21.38 1.16c0-1.36-.34-3.78-.56-6.52-1.22-14.56 0-17.54 2.18-21.62a59.06 59.06 0 0 1 7.1-10.4c1.46-1.38 6.24-1.76 8.3-2 2.42-.24 3.04.42 3.52 2.74a32.6 32.6 0 0 1 .46 7.34c0 2.32-2.68 5.02-5.04-4.4a17.14 17.14 0 0 1 0 8.3 25.72 25.72 0 0 0 3.28 11.58c-.24 2.14 1.86 11.42 2.14 13.82Z" fill="#94bfec"></path><path d="M173.1 214.7c-2.42 4.1-4.46 4-7.48 2.3-1.5 1.1-3.08.68-5.3-.62-1.34 1.06-2.64.76-4.48-.46-2.92-2-3.58-5.8-3.32-8.88a27.74 27.74 0 0 1-12-10.54c3.78-6.52 12.82-11.82 19.52-12.72 4.36 4.72 11.68 11.62 17.12 16.88a10.28 10.28 0 0 1 2.84 8.36c-.22 2.68-2.64 24.84-2.72 25.4-.5 3.38-4.44 5.24-4.18-19.72Z" fill="#94bfec"></path><path d="M222.72 293.1a.64.64 0 0 1 0-1.26L256 286a.64.64 0 0 1 .22 1.26c-38.58 6.74-33.28 5.84-33.5 5.84Z" fill="#007aff"></path><path d="m110.28 149.34-4.78-27.14a.64.64 0 0 1 .52-.74l55.54-9.8a.65.65 0 0 1 .22 1.28l-54.9 9.68 4.66 26.5a.64.64 0 1 1-1.26.22Z" fill="#007aff"></path><path d="m122.76 220-7.84-44.4a.64.64 0 0 1 1.26-.22l7.82 44.48a.64.64 0 0 1-1.24.14Z" fill="#007aff"></path><path d="M138.78 308a.64.64 0 0 1-.64-.52l-8.44-48a.64.64 0 1 1 1.26-.22l8.34 47.32 47.18-8.32a.64.64 0 0 1 .22 1.26C138.26 308 138.98 308 138.78 308Z" fill="#007aff"></path><path d="M357.16 370.88c-1.22-4.64-7.44-41.24-55.12-311.38a25.64 25.64 0 0 0-29.66-20.78L104 68.42A25.58 25.58 0 0 0 83.22 98l44.52 252.56a.65.65 0 0 1-1.28.22L82 98.34a26.86 26.86 0 0 1 21.78-31.18l168.38-29.7a26.94 26.94 0 0 1 31.16 21.82c46.42 263.28 54.26 305.24 54.86 311.36.18 1.86-.92.58-1.02.24Z" fill="#007aff"></path><path d="M351.5 137.22a10.3 10.3 0 1 1 10.3-10.3 10.32 10.32 0 0 1-10.3 10.3Zm0-19.32a9.02 9.02 0 1 0 9.02 9.02 9.04 9.04 0 0 0-9.02-8.92Z" fill="#007aff"></path><path d="M380.34 157.08a10.3 10.3 0 1 1 10.3-10.3 10.32 10.32 0 0 1-10.3 10.3Zm0-19.32a9.02 9.02 0 1 0 9.02 9.02 9.02 9.02 0 0 0-9.02-9.02Z" fill="#007aff"></path><path d="M348 162.94a.64.64 0 0 1-.52-1l36-51.3a.64.64 0 0 1 1.06.72c-38.54 54.92-36.1 51.58-36.54 51.58Z" fill="#007aff"></path><path d="M378.98 72c-.8-.58-2.86-2-8.34-5.8a5.1 5.1 0 1 1 5.68-8.46l.94.66.56-.78a5.105 5.105 0 0 1 8.36 5.86c-4 5.7-5.32 7.76-6 8.48s-.6.4-1.2.04Zm-5.5-13.84a3.82 3.82 0 0 0-2.12 6.98l8.12 5.68 5.64-8a3.82 3.82 0 0 0-6.26-4.36l-.94 1.3a.64.64 0 0 1-.88.14 6 6 0 0 0-3.56-1.8Z" fill="#007aff"></path><path d="M162.14 314.16a6.54 6.54 0 0 0-9.08 1.6l-.86 1.22a7.36 7.36 0 0 0-6-2 6.52 6.52 0 0 0-2.6 11.76l11.36 8a.64.64 0 0 0 .9-.16l8-11.38a6.5 6.5 0 0 0-1.72-9.04Z" fill="#007aff"></path><path d="M173.36 320.96a11.06 11.06 0 0 1 9.5-12.4c9.06-1.58 15.76 6.6 12.5 14l2.32 3.9a.66.66 0 0 1-.7.96l-4.48-.98c-6.68 5.98-17.68 2.84-19.14-5.48Zm11.7-11.3c-9.72 0-14.42 11.38-6.76 16.76a11 11 0 0 0 13.58-1.08c.36-.34.62-.16 4 .56-1.76-2.94-2-3.06-1.76-3.5 2.82-6.02-1.86-12.74-9.06-12.74Z" fill="#007aff"></path><path d="m306.84 309.36-3.44-19.52a.64.64 0 0 1 .52-.76c20.92-3.68 19.5-3.52 19.82-3.3s0-1.3 3.7 20a.64.64 0 0 1-.94.66l-10.62-6c-5.26 6.14-7.08 8.32-7.8 9.08s-1.18.24-1.24-.16Zm-2-19.12 3.1 17.56 7.38-8.62a.62.62 0 0 1 .8-.14l9.9 5.58-3.1-17.58Z" fill="#007aff"></path><path d="M102.24 102.92a9.76 9.76 0 1 0 19.52 0 9.76 9.76 0 1 0-19.52 0" fill="#007aff"></path><path d="M126.3 101.04a.643.643 0 0 1-.12-1.28l26.94-4.74a.64.64 0 0 1 .22 1.26c-26.92 4.76-26.84 4.76-27.04 4.76Z" fill="#007aff"></path><path d="M72.7 215.14c.58-.16.22.82 4.48-19.76a.64.64 0 0 0-.74-.76l-49.2 8.68-6.32-12.92a.64.64 0 0 0-.7-.34l-10.34 1.82a.641.641 0 0 0 .24 1.26l9.88-1.74 19.52 39.88a5.38 5.38 0 1 0 8.32 4.22l17.82-3.14a5.38 5.38 0 1 0-.22-1.26l-17.84 3.14a5.36 5.36 0 0 0-6.92-3.52L38 225.08Zm-2 11.54a4 4 0 1 1-4 4 4.1 4.1 0 0 1 4.1-4Zm-24.26 9.1a4.1 4.1 0 1 1-5.78-3.78 4.14 4.14 0 0 1 5.88 3.78ZM75.74 196 72 214l-34.66 10-9.52-19.4Z" fill="#007aff"></path><path d="m57.88 120.62-11.02 2-2-11.02a.64.64 0 0 0-1.26.22l2 11.02-11.02 2a.64.64 0 1 0 .22 1.26l11.02-2 2 11.02a.64.64 0 1 0 1.26-.22l-2-11.02 11.02-2a.64.64 0 1 0-.22-1.26Z" fill="#007aff"></path><path d="m389.38 216.94-19.82 3.5-3.56-19.82a.64.64 0 0 0-1.26.22l3.48 19.82-19.82 3.5a.64.64 0 0 0 .22 1.26l19.82-3.5 3.5 19.82a.64.64 0 1 0 1.26-.22l-3.5-19.82 19.82-3.48a.644.644 0 0 0-.14-1.28Z" fill="#007aff"></path><path d="M270.82 119.14a14.46 14.46 0 0 1-1.06-2.66.646.646 0 0 0-1.24.36.48.48 0 0 1 0 .16c-6.36 3.56-10.1 0-4.92-2.98-3.1.6-5.54-2-1.08-4.78a3.82 3.82 0 0 1-1.06-.2c-.94.94-2.68.22-4.32-6.28a13.14 13.14 0 0 1-.5 9.12 25.22 25.22 0 0 0 3.62 11.58.64.64 0 0 0 .64.28 34 34 0 0 0 9.68-3.8.62.62 0 0 0 .24-.8Z" fill="#007aff"></path><path d="M293.34 112.36c5.34 2 5.86-11.58 5.72-17.32 7-5.58 6-13.36-2.1-17.06-1.78-8-4.96-16.34-8.62-15.88-1.32.16-.36-.5-18.42 19.16L247.48 84a8.74 8.74 0 0 0-6.18 13.58l-11.18 2a.641.641 0 0 0 .24 1.26l11.84-2a8 8 0 0 0 6.32 2.44.64.64 0 0 0 .62-.64c0-.36-.34-.7-.66-.64-9.3.22-10-13.52-.86-14.62l.54 0a18.48 18.48 0 0 0 1.38 14 .64.64 0 0 0 1.18-.18 23.74 23.74 0 0 1 7.54-1.52c2.2-.22 2.48.42 2.82 1.58.22.78.14 1 .46 1.14a.52.52 0 0 0 .42 0 11.66 11.66 0 0 1 6-1.72.64.64 0 0 0 .64.32l3.36-.42 19.86 13.12 28.76 163.04-24.94 4.4a.64.64 0 0 0 .22 1.26c27.32-4.92 25.76-4.44 26-4.76s1.46 6.76-28.52-163.28ZM302.4 86c.6 5-4.44 8.2-4.54 8.4a23.66 23.66 0 0 1-10.24 4 92.38 92.38 0 0 1-2.58-21.04c8.96-.64 16.68 3.12 17.36 8.64Zm-29.82 11.24c-2.9-2.92-3.9-11.24-1.84-14.96l14-15.32c-3.36 12.74 1.78 32.88 1.7 32.34a.32.32 0 0 0 0 .18 41.78 41.78 0 0 0 3.56 9.2Z" fill="#007aff"></path><path d="M175.86 205.12a105.12 105.12 0 0 0-12.24-.62.64.64 0 0 1 0-1.28 106 106 0 0 1 12.34.62.642.642 0 0 1-.1 1.28Z" fill="#1360ae"></path><path d="M173.68 117.14c12.38-4.84 15.32-14.22 17.8-24-6.88-2.22-3.88-9.06-.4-6.42s2.2-.9 1.88-4.54A61.06 61.06 0 0 1 206.52 80c6.2 18.74 5.68 31.52-11.48 21.46a20.22 20.22 0 0 0 4.14 6.42A15.34 15.34 0 0 0 208 120l2 1.18a58.82 58.82 0 0 1-2.98 17.02c-8.22-6.54-24-16.46-35.44-20.24Z" fill="#94bfec"></path><path d="M292 311.78a.62.62 0 0 0 .36-.48c2-11.62 7.12-57.32 7.8-72 .58-13.06-.78-20.96-34.42-41.64 4-3.34 4.82-12 4.36-65.1 0-2.6-5.3-3.26-8.24-3.52-1.1-6-.58-5.38-.98-5.32s-.78-.46-1.08-.96c-.22 2.34 1.54 10 2 13.12a73.6 73.6 0 0 1-20 1.08c-.24-3.06-.84-8.32-.94-13-.2-8.5.44-10.44 2.52-14.28a52.58 52.58 0 0 1 6.98-10.18c1.32-1.18 5.1-1.52 8-1.78 2.16-.22 2.32.4 2.62 1.42a32.72 32.72 0 0 1 .68 8c0 .86-.46 1.58-.78 1.62s-1.74-1.18-3-6.16a.648.648 0 0 0-1.26.3c1.34 6.18.18 10.4-3.56 12.94a.64.64 0 0 0 .72 1.06 10.42 10.42 0 0 0 4.62-8.9c.68 1.22 1.38 2 2.14 2-2 2-1.1 4 1.16 4.6-2.24 2.16-.9 4.52 1.88 4.52a12.4 12.4 0 0 0 6-2 3.4 3.4 0 0 0 .62-5.4 3.34 3.34 0 0 0 0-5.02 3.44 3.44 0 0 0-.32-4.72 2.8 2.8 0 0 0-2.28-4.66 13.62 13.62 0 0 0-5.3 1.46c-.5-1.68-1.3-2.64-4-2.36-3.28.3-6.98.64-8.6 2.1a53.34 53.34 0 0 0-7.28 10.54c-2.4 4.44-3.4 7.78-2.3 21.42-3.1.7-6.42 2.2-6.26 4.3 0 .12 0-.18 1.16 6.82a69.78 69.78 0 0 0-20.1-18.4 6.26 6.26 0 0 0 3.34-5.54 7.4 7.4 0 0 0 10.26-8.4c5.86-.66 7.26-7.12 4.22-11.14a5.18 5.18 0 0 0 1.52-9.32 5.72 5.72 0 0 0 1.4-9.64c5.06-2.72 3.4-9.42-.96-12 3.66-2.94 2.4-9.82-2.78-10.52a6.4 6.4 0 0 0-6.46-9.68c.44-5.32-3.36-8.8-9.06-6.84a6.94 6.94 0 0 0-11.06-5.06c-2-5.58-8.32-7.44-13.44-2.42-2.2-5.38-10.9-5.7-12.88-.22-4.42-4.16-12.4-1.76-13.12 3.76-5.66-4.28-12.7 1.08-13.02 7.38-5.78-2.2-11.06 5.1-9.24 10.78-6.98 1.48-8.86 8.34-4.6 13.06-6.12 2.74-5.78 9.22-1.38 12.84-4.8 4-3.56 10.94 2.3 12.56a8.36 8.36 0 0 0 6.68 12.8c-2.56 5.82 2 11.6 7.86 10a7.1 7.1 0 0 0 2.62 6.96c-12.5 4.6-25.1 9.48-35.02 15.88-14.38 9.3-20.38 20.54-9.66 33.88 8.3 10.3 14.38 18 26.94 31.2 1.78 2.4 5.24 2 8.12 1.08a25.54 25.54 0 0 0 4.52 2.72 9.76 9.76 0 0 0 3.62 9 4.26 4.26 0 0 0 4.86.72 5.1 5.1 0 0 0 5.3.58c2.7 1.46 4.78 1.48 6.82-.96 0 3.72 0 20.22 3.58 20.22.78 0 1.44-.76 1.74-2 .58 2.74 1.28 5.6 2.12 8.56-10.22-5.78-38.2-23.2-38.88-22.86s-2 1.18-2.98 1.78c-3.34-2.72-6.56-6.38-7.44-6.14C116.82 220.2 87.7 241.54 82 252a.64.64 0 0 0 .48.94c17.08 2.36 28.74-3.88 39.72-5.6a34.74 34.74 0 0 0-.4 6 .66.66 0 0 0 .2.66c5.1 4 46.34 34 63.78 45.16 21.1 13.62 36.84 6.74 39.14-13.56.86-7.58 2.48-27.82 3.86-45.52 0 0 25.42 6.62 31.16 8-.74 7.14-4.94 43.32-4.94 43.36-1.62 14-1.62 13.14-1.26 13.44a31.5 31.5 0 0 0 3.34 2.4c-2.28 6.68-7.54 12.2-6.98 13.36 6.1 12.8 30.1 33.88 43.3 41.88a.66.66 0 0 0 .98-.58c-.84-22.46-14.76-33.9-13.88-48.16a28.14 28.14 0 0 0 11.5-2ZM268.78 116a12 12 0 0 1-4.62 1.76c-1.22.2-2-.24-2.28-.74s.24-1.42 2-2.46a15.38 15.38 0 0 0 5.28-2 2 2 0 0 1-.38 3.44Zm-.58-9.28a11.06 11.06 0 0 1-5.58 1.76 10 10 0 0 0 .28-3.82 18.46 18.46 0 0 0 6-1.82c1.1.84 1.1 2.82-.7 3.96Zm-.66-8.16c2.14 0 2 2.6 0 3.46a17.82 17.82 0 0 1-4.74 1.34 25.22 25.22 0 0 0-.38-3.3 11.86 11.86 0 0 1 5.12-1.42Zm-4.72 11.2a12.26 12.26 0 0 0 6.34-2.16 1.44 1.44 0 0 1 .76 1.16c.28 1.9-1.82 2.94-3.6 3.7-2.2.92-4.92 1.54-5.5 0-.22-.46.18-1.44 2-2.62Zm6 24.64 0 11.04c-4.68 5.62-22.54 6.56-31.68 2.98-.62-3.78-1.36-8.44-2-11.66 5.4 2.76 27.66 2.44 33.76-2.28Zm-76.7-41.08a.64.64 0 0 0-.42-.76c-5.84-1.88-3.7-7.38-1-5.32.88.68 1.88 1.3 2.66.86 1.14-.66.58-2.74.3-5.42a56.82 56.82 0 0 1 12.4-2.12c5.86 18 5.66 29.72-10.7 20.26a.64.64 0 0 0-.92.78 21.16 21.16 0 0 0 4.14 6.52c.92 6.88 4.64 10 10.76 13.42a59.48 59.48 0 0 1-2.62 15.62A142.68 142.68 0 0 0 173.44 118c11.94-4.72 15.54-12.34 18.68-24.68ZM130.26 192c-6.84-7.68-11.1-13.08-16.98-20.38-8.2-10.2-7.76-20.94 9.34-32 13.72-8.84 32.76-14.82 48.96-21 11.02 3.68 26.24 13.06 35.04 20a.64.64 0 0 0 1-.26 57.58 57.58 0 0 0 2.98-16.18 70.48 70.48 0 0 1 24.74 22.3c1.36 8.4 4 24.68 4.94 29.3a.643.643 0 0 0 1.26-.26c-.8-3.68-2.5-14.22-4-23.66 8.34 2.92 25.08 2.88 31.46-2.62.16 40.76-.88 47.12-4.36 49.64-8-4.84-17.62-10.38-29.4-16.82a150.88 150.88 0 0 1-6-15.6c-1.76-23.82-7.32-28.98-12.72-34l-.6-.54a.64.64 0 1 0-.88.92c5.66 5.26 8.9 8.96 11.2 20.3a151.4 151.4 0 0 1 2.28 26c-5.4 8.86-25.34 10.44-36.52 6.98-5.38-6.28-12.74-14.32-18.7-20.38a112.52 112.52 0 0 0 5.7-10.6.64.64 0 0 0-.74-.88c-6.76 1.88-25.88 7.72-30.74 9.4-2.2-2.5-4.14-4.64-5.56-6.14a.644.644 0 0 0-.92.9c3.3 3.48 9.58 10.68 15.22 17.28-11.4-1.36-24.9 10.06-26 18.3Zm37.26-7.18c-5.52-6.48-12.7-14.82-19.02-22.12 3.04-1.02 10-3.16 16.52-5.18a330.42 330.42 0 0 1 25.76 27.08 38.42 38.42 0 0 0-12.14 16.64c-.88-1.18-1.64-1.62-10.92-10.66a4 4 0 0 0-.2-5.74ZM140 196.34a10.34 10.34 0 0 0-1.5 4.62q-3.84-4-6.98-7.58c-.44-7.58 14.28-20.82 26.16-18.16l6.92 8a12.5 12.5 0 0 0-4.3-.16.62.62 0 0 0-.46 0 30.56 30.56 0 0 0-19.7 12.94.84.84 0 0 0-.14.34Zm36.64 38a2.46 2.46 0 0 1-.54 1.42s-2.52-.96-2.3-20.86a38.42 38.42 0 0 0 2.2-4.76.64.64 0 0 0-1.18-.48c-.92 2.24-2.86 6.9-5.1 7.66a3.72 3.72 0 0 1-2.96-.46 24 24 0 0 0 4-6.98.64.64 0 0 0-1.18-.5c-2 4.82-3.52 7-5 7.5a4 4 0 0 1-3.08-.62 29.36 29.36 0 0 0 4-6.82.64.64 0 0 0-1.16-.54c-.94 2-3.12 6.88-5.06 7.42-.74.22-1.62 0-2.92-.94a8.6 8.6 0 0 1-3.08-7.4 23.18 23.18 0 0 0 4.28 1.26c0 .14-.54 1.32-.58 1.46a.64.64 0 1 0 1.2.44c.16-.44 1.34-3.2 1.6-4a.642.642 0 0 0-1.22-.4c0 .24-.28.74-.5 1.3a26 26 0 0 1-16.54-11.56 29.62 29.62 0 0 1 18.54-12c2.48 2.68 6.38 6.5 6.52 6.62 10.4 10.16 10.76 10 11.76 11.76a10 10 0 0 1 1.14 6c-.38 3.5-2.5 22.7-2.88 25.44Zm-10.42 2.78c3.52 3.52 10.38 10.54 17.72 18.72.42 1.12.84 2.24 1.28 3.38a.643.643 0 0 0 1.2-.46 145.86 145.86 0 0 1-8-27.78c.74-6.5 2.12-19.2 2.3-22a12.42 12.42 0 0 0-1.1-6.4 37.26 37.26 0 0 1 12.34-17.24 42.18 42.18 0 0 0 4.16 1c-13.86 21.76-8.92 55.06-2.4 87.56-10.3-6.56-50.94-31.7-54.34-34a28 28 0 0 1 12.96-11.16Zm-25.1-14.86 9.7 5.74c-10.88 4.64-19.08 19.52-19.54 31.26-4.12-3-7.1-5.22-8.28-6.12a34.88 34.88 0 0 1 18.08-30.92Zm120.16 25.36a.66.66 0 0 0-.5-.68l-3.16-.78a138.18 138.18 0 0 1-27.7-20.74c.5-6.36.9-11.46 1.12-14a.643.643 0 0 0-1.28-.12c-.34 4-5.12 65.34-6.12 74.2-2 18.54-16.12 26.2-37.16 12.62-13.48-8.7-39.54-27.38-53.9-37.86a38.48 38.48 0 0 1 6-19.12c6.74 4.58 34.3 21.22 55.62 34.82a.64.64 0 0 0 .98-.66c-6.66-32.94-12-66.88 2.22-88.56 10 1.48 26.4-.14 31.88-8.26 64.92 35.14 70.44 44 69.66 60.9-.5 11.12-3.56 40.16-5.88 58.52-10.62 4-29.88.44-36.74-6.8 1.02-9.24 4.58-39.94 4.92-43.52ZM254.8 304c.3-2.64.76-6.7 1.32-11.46 7.64 7.06 25.8 10.38 36.74 6.64-.62 4.92-1.2 8.96-1.64 11.52-8.42 3.7-26.54 1.3-36.42-6.7Z" fill="#1360ae"></path></g></g></svg>